@startuml
scale 100 width
scale 260 height

hide empty description
state "Успешный ход передачи отчётов" as Saccess #LightGray;line.dotted;line:LightGray {
    state "1 – Формирование" as State1
    state "2 - Постановка\nдокументов\nв очередь" as State2
    state "3 - Документы\nв очереди" as State3
    state "4 - Постановка\nотчёта\nв очередь" as State4
    state "5 - Отчёт\nв очереди" as State5
    state "6 - Отчёт\nотправлен в СПО" as State6
    state "7 - Требуется\nподписать\nдокументы" as State7
    state "8 - Постановка\nподписей\nв очередь" as State8
    state "9 - Подписи\nв очереди" as State9
    state "10 - Постановка\nсобытия\nподписания\nв очередь" as State10
    state "11 - Событие\nподписания\nв очереди" as State11
    state "12 - Событие\nподписания\nотправлено в СПО" as State12  
    state "13 - Отчёт\nотправлен\nв КО" as State13
}
state "Ошибки" as Errors #LightGray;line.dotted;line:LightGray {
    state "14 - Ошибка\nформирования" as State14
    state "15 - Ошибка\nпостановки\nдокументов\nв очередь" as State15
    state "16 - Ошибка\nотправки\nдокументов\nв СПО" as State16
    state "17 - Ошибка\nпостановки\nотчёта\nв очередь" as State17
    state "18 - Ошибка\nотправки\nотчёта\nв СПО" as State18
    state "19 - Ошибка\nполучения\nтребования\nподписать\nиз СПО" as State19
    state "20 - Ошибка\nподписания" as State20
    state "21 - Ошибка\nпостановки\nподписей\nв очередь" as State21
    state "22 - Ошибка\nотправки\nподписей\nв СПО" as State22
    state "23 - Ошибка\nпостановки\nсобытия\nподписания\nв очередь" as State23
    state "24 - Ошибка\nотправки\nсобытия\nподписания\nв СПО" as State24
    state "25 - Ошибка\nотправки\nв КО" as State25
}

[*] --> State1
State1 -> State2
State1 --> State14

State2 -> State3
State2 --> State15

State3 -> State4
State3 --> State16

State4 -> State5
State4 --> State17

State5 -> State6
State5 --> State18

State6 -> State7
State6 --> State19

State7 -> State8
State7 --> State20

State8 -> State9
State8 --> State21

State9 -> State10
State9 --> State22

State10 -> State11
State10 --> State23

State11 -> State12
State11 --> State24

State12 -> State13
State12 --> State25

State14  --> [*]
State15  --> [*]
State16 --> [*]
State17 --> [*]
State18 --> [*]
State19 --> [*]
State20  --> [*]
State21  --> [*]
State22 --> [*]
State23 --> [*]
State24 --> [*]
State25 --> [*]

State13 --> [*]

@enduml
